<svg fill="none" height="56" viewBox="0 0 152 56" width="152" xmlns="http://www.w3.org/2000/svg" xmlns:xlink="http://www.w3.org/1999/xlink"><linearGradient id="a"><stop offset="0" stop-color="#fff33b"/><stop offset=".04" stop-color="#fee72e"/><stop offset=".12" stop-color="#fed51b"/><stop offset=".2" stop-color="#fdca10"/><stop offset=".28" stop-color="#fdc70c"/><stop offset=".67" stop-color="#f3903f"/><stop offset=".89" stop-color="#ed683c"/><stop offset="1" stop-color="#e93e3a"/></linearGradient><linearGradient id="b" gradientUnits="userSpaceOnUse" x1="103.327" x2="121.598" xlink:href="#a" y1="18.0309" y2="18.0309"/><linearGradient id="c" gradientUnits="userSpaceOnUse" x1="110.574" x2="116.59" xlink:href="#a" y1="11.5295" y2="11.5295"/><linearGradient id="d" gradientUnits="userSpaceOnUse" x1="116.065" x2="151.747" xlink:href="#a" y1="36.0824" y2="36.0824"/><linearGradient id="e" gradientUnits="userSpaceOnUse" x1="125.661" x2="141.303" xlink:href="#a" y1="23.6787" y2="23.6787"/><g clip-rule="evenodd" fill-rule="evenodd"><path d="m104.374 25.1129c4.863 2.3348 8.231 6.7267 9.05 11.7993l.012.0286c1.394 8.704-4.962 16.8296-14.2205 18.1797-1.7009.237-3.4297.237-5.1306 0-2.7113-.3896-5.2818-1.3905-7.4915-2.9172-1.385-.9687-2.6066-2.128-3.6237-3.4388-1.5401-1.9509-2.5836-4.2077-3.0503-6.5967 2.1063-1.1536 3.9477-2.6888 5.4173-4.5163-.0972.5571-.1482 1.1205-.1525 1.685-.0038 5.1545 3.8866 9.5863 9.2735 10.5641 5.3869.9779 10.7543-1.7734 12.7953-6.5582 2.04-4.7847.179-10.2567-4.437-13.0435-4.6151-2.7867-10.6864-2.1042-14.4717 1.627.3127-1.047.517-2.1199.6101-3.2038l.9089.854c.0549.0364.1282.0364.1831 0 1.1975-.7158 2.5187-1.2298 3.9043-1.5188.0663-.0174.1132-.0729.1159-.1376v-3.2439c.0005-.0276-.0122-.054-.0347-.0718s-.0523-.0251-.0812-.0199c-1.7356.2786-3.4097.8268-4.9536 1.622-.0183-.3611-.0549-.7164-.1037-1.0718 4.8554-2.3482 10.6175-2.3562 15.4806-.0214zm-20.5685 22.8607 2.4402-2.2925c.0377-.0461.0447-.108.0183-.1605-.7621-1.1229-1.3092-2.3623-1.6166-3.6623-.018-.0636-.0767-.1095-.1464-.1146h-3.4469c-.031-.0005-.0605.0121-.0806.0343s-.0285.0516-.0231.0803c.3985 2.2038 1.3224 4.2944 2.7026 6.1153.0169.024.0456.0384.0762.0384.0307 0 .0593-.0144.0763-.0384zm22.0235 3.5477c-1.94 1.2942-4.165 2.1619-6.5098 2.5389-.03.0055-.0609-.0025-.0837-.0216-.0228-.0192-.0347-.0472-.0322-.0758v-3.2382c.0007-.0653.0484-.1219.1159-.1375 1.3838-.2888 2.7028-.8028 3.8978-1.5188.057-.0392.133-.0392.19 0l2.44 2.2925c.029.0191.045.0519.042.0854-.004.0335-.027.0623-.06.0751zm1.183-18.558c-.043.0502-.043.1217 0 .1719.761 1.1216 1.308 2.3589 1.617 3.6566.018.0623.077.1063.146.1089h3.429c.03.0023.06-.0089.08-.0303.021-.0213.029-.0504.023-.0786-.398-2.2056-1.322-4.2981-2.702-6.121-.017-.0241-.046-.0385-.077-.0385-.03 0-.059.0144-.076.0385z" fill="#d01c2d"/><path d="m88.102 46.0757c4.0105 5.0746 11.2041 6.1433 16.068 2.3869 4.863-3.7563 5.554-10.9152 1.544-15.9898-4.011-5.0746-11.2043-6.1433-16.0677-2.3869-.4663.3601-.8942.7515-1.2833 1.1694-.5593 2.2081-1.4974 4.313-2.8043 6.2107-.3145 2.929.5102 6.0372 2.5433 8.6097z" fill="#fff"/><path d="m84.2689 17.7867c1.6284 2.0742 2.6943 4.4899 3.1052 7.0381v.0229c.6813 4.1814-.4359 8.4457-3.1052 11.8524-1.034 1.2872-2.2679 2.4213-3.6603 3.3643-5.279 3.65-12.3247 4.1142-18.0943 1.1921l.0139-.1376h.0001c.0326-.321.0653-.6419.0653-.9628 1.6316.8878 3.4185 1.4953 5.277 1.7939.0292.0077.0606.0014.0839-.017.0232-.0184.0352-.0464.032-.0747v-3.2153c-.0013-.0639-.0493-.1185-.1159-.1318-1.3832-.2934-2.702-.8092-3.8982-1.5246-.0562-.0391-.133-.0391-.1892 0l-1.2201 1.1463c-.1131-1.3978-.406-2.7777-.8723-4.1093 3.6669 4.2275 10.1271 5.1961 15.0126 2.2509 4.8854-2.9452 6.6399-8.8661 4.0771-13.7592-2.5627-4.8932-8.6264-7.2-14.0911-5.3608-5.4646 1.8393-8.5896 7.2388-7.262 12.5476-1.4775-2.0317-3.394-3.7482-5.6247-5.0378.4203-2.4877 1.466-4.8455 3.0503-6.8776 1.0295-1.3024 2.2637-2.4504 3.6603-3.4044 5.9849-4.1465 14.147-4.1465 20.1319 0 1.3826.9579 2.6041 2.1055 3.6237 3.4044zm-25.6711 6.9235c.3074-1.3.8545-2.5395 1.6166-3.6623.028-.0523.0208-.115-.0183-.1605l-2.4402-2.2925c-.017-.0241-.0456-.0385-.0763-.0385-.0306 0-.0593.0144-.0762.0385-1.3776 1.8222-2.3013 3.9122-2.7026 6.1153-.0054.0286.003.0581.0231.0803s.0497.0348.0806.0343h3.4469c.0705-.0033.1302-.0501.1464-.1146zm21.1994-9.5369-2.4402 2.2925c-.0535.0402-.1295.0402-.183 0-1.1975-.7158-2.5188-1.2297-3.9044-1.5188-.0675-.0157-.1151-.0722-.1159-.1376v-3.221c-.0005-.0276.0122-.0539.0347-.0717s.0523-.0251.0812-.02c2.3473.3724 4.5746 1.2384 6.5154 2.5333.023.0168.0374.0419.0397.0691.0023.0273-.0077.0542-.0275.0742zm3.7061 20.7342c.0307 0 .0593-.0144.0763-.0385 1.3872-1.8233 2.3174-3.9178 2.7208-6.1267.0055-.0287-.003-.0582-.0231-.0803-.02-.0222-.0496-.0348-.0806-.0344h-3.4468c-.0681.0043-.1264.0476-.1464.1089-.3077 1.3017-.8548 2.543-1.6167 3.6681-.0387.0515-.0387.1204 0 .1719l2.4402 2.2925c.017.0241.0456.0385.0763.0385z" fill="#d01c2d"/><path d="m70.4258 38.2853c6.5045 0 11.7774-4.9538 11.7774-11.0645 0-6.1108-5.2729-11.0646-11.7774-11.0646s-11.7774 4.9538-11.7774 11.0646c0 .6017.0512 1.1923.1496 1.768 1.3839 1.7737 2.4621 3.7712 3.1618 5.9238 2.1412 2.0797 5.1429 3.3727 8.466 3.3727z" fill="#fff"/><path d="m57.9024 30.0175c1.6276 2.0745 2.6933 4.49 3.1052 7.038.6733 4.1849-.4515 8.4497-3.1266 11.8552-2.6752 3.4054-6.6814 5.6724-11.1365 6.3016-1.6988.2369-3.4256.2369-5.1245 0-4.4487-.6325-8.4474-2.9005-11.1152-6.3044-1.6281-2.0679-2.694-4.478-3.1052-7.0209-.0427-.1146-.0427-.2235-.0427-.3381 4.8626-3.1159 7.8465-8.2281 8.0284-13.7552l2.0559 1.9085c.0548.0364.1281.0364.183 0 1.1952-.7159 2.5145-1.23 3.8982-1.5188.0677-.0168.1166-.072.122-.1375v-3.2382c.0005-.0291-.0129-.0569-.0365-.0758-.0236-.0188-.055-.0268-.0855-.0216-2.1815.3557-4.2596 1.1367-6.1005 2.2925-.0082-.3821-.0265-.7642-.0549-1.1463 5.8804-3.3869 13.359-3.0877 18.9117.7566 1.3826.9578 2.6041 2.1054 3.6237 3.4044zm-26.5313 18.0994 2.4402-2.2925c.0371-.0466.0419-.1093.0122-.1605-.7571-1.1253-1.3038-2.3639-1.6166-3.6623-.0167-.0634-.0769-.1082-.1464-.1089h-3.4469c-.0301-.0029-.0599.0083-.0795.0302-.0196.0218-.0263.0513-.0181.0787.3964 2.2034 1.3183 4.294 2.6965 6.1153.0183.024.0478.0383.0793.0383.0314 0 .061-.0143.0793-.0383zm22.0291 3.5477c-1.9401 1.2934-4.1646 2.1611-6.5093 2.539-.0305.0051-.0618-.0028-.0855-.0217-.0236-.0188-.037-.0466-.0365-.0757v-3.2382c.0028-.0646.0496-.1202.1159-.1376 1.3856-.289 2.7069-.803 3.9044-1.5188.0535-.0402.1295-.0402.183 0l2.4402 2.2925c.03.0182.0471.0503.0445.0837-.0025.0334-.0243.0629-.0567.0768zm2.9405-14.6091h3.4468c.035.0003.0675-.0171.0852-.0455.0176-.0284.0177-.0635.0002-.092-.3963-2.2052-1.3181-4.2977-2.6964-6.1211-.0208-.0203-.0494-.0318-.0794-.0318-.0299 0-.0585.0115-.0793.0318l-2.4402 2.2925c-.0387.0516-.0387.1204 0 .172.7636 1.1311 1.3126 2.3779 1.6228 3.6852.0141.0625.0723.1076.1403.1089z" fill="#d01c2d"/></g><path d="m44.2064 50.226c-4.6344.0023-8.8138-2.6187-10.589-6.6405-1.7753-4.0218-.7966-8.6523 2.4796-11.7318 3.2761-3.0795 8.2044-4.0014 12.4863-2.3358 4.2819 1.6657 7.0739 5.5908 7.0739 9.9447 0 5.9422-5.1257 10.7602-11.4508 10.7634z" fill="#fff"/><path clip-rule="evenodd" d="m33.7624 24.8249c-1.0381-6.3757-6.0612-11.5365-12.7279-13.0769s-13.66476.8428-17.73219 6.0389c-4.18013 5.3379-4.41159 12.548-.58146 18.1129s10.92385 8.3251 17.82055 6.9342c6.8967-1.391 12.1595-6.6433 13.221-13.1948.2603-1.5954.2603-3.2188 0-4.8143zm-14.0984-12.328c2.3451.3733 4.5701 1.2393 6.5093 2.5332.0232.0174.0367.0438.0367.0717 0 .0278-.0135.0542-.0367.0716l-2.4402 2.2925c-.0535.0403-.1296.0403-.183 0-1.1969-.717-2.5184-1.2311-3.9044-1.5188-.0663-.0173-.1131-.0729-.1159-.1375v-3.221c-.0025-.0317.0126-.0623.0399-.081.0274-.0187.063-.0227.0943-.0107zm-13.07349 8.3792-2.44022-2.2926c-.02023-.0228-.05096-.035-.08245-.0327-.0315.0023-.05988.0188-.07616.0442-1.37907 1.823-2.30093 3.9156-2.69645 6.121-.0077.028-.00093.0577.01828.0803.0192.0225.0486.0353.07933.0344h3.42851c.07052-.0034.13021-.0501.14641-.1147.31226-1.2995.86126-2.5385 1.62275-3.6623.0398-.0533.0398-.1243 0-.1776zm7.70499 21.0912c-2.3445-.3753-4.56911-1.2411-6.50928-2.5333-.02338-.0185-.03688-.0457-.03688-.0745 0-.0287.0135-.056.03688-.0745l2.44018-2.2925c.0535-.0402.1296-.0402.1831 0 1.1962.7154 2.515 1.2312 3.8982 1.5245.0678.0129.1179.067.122.1318v3.2096c.0106.0344-.0011.0714-.03.0948-.0288.0234-.0695.0289-.1042.0141zm13.0552-8.3792 2.4402 2.2925h.0183c.0215.0207.0516.0313.0822.0291s.0586-.0171.0764-.0405c1.3773-1.8218 2.2991-3.9122 2.6965-6.1153.0077-.028.0009-.0577-.0183-.0803s-.0486-.0353-.0793-.0344h-3.4468c-.0688.0026-.128.0466-.1464.1089-.3122 1.3013-.8612 2.5422-1.6228 3.6681-.0387.0515-.0387.1204 0 .1719z" fill="#d01c2d" fill-rule="evenodd"/><path d="m16.9799 37.9896c-4.635.0024-8.81483-2.6192-10.5897-6.6417-1.77486-4.0226-.79505-8.6535 2.48237-11.7325 3.27743-3.0791 8.20673-3.9996 12.48833-2.3321 4.2817 1.6674 7.0722 5.5942 7.0697 9.9487 0 2.8531-1.2064 5.5893-3.3538 7.6068-2.1475 2.0175-5.06 3.1508-8.0969 3.1508z" fill="#fff"/><path d="m121.598 5.21799c-.285.22544-.565.45469-.842.68776-.499.42889-.971.88432-1.415 1.36405-2.313 2.47089-3.873 5.4827-4.515 8.7173-.054.2866-.103.5732-.146.8655s-.085.6877-.116 1.0316c-4.899.8112-9.645-2.0315-10.929-6.5464-1.285-4.51502 1.319-9.20317 5.995-10.796381 4.677-1.593209 9.874.437523 11.968 4.676571z" fill="url(#b)"/><path d="m112.594 16.2794c.747-.0002 1.492-.0927 2.214-.2751-.055.2866-.104.5731-.146.8654-.574.1106-1.159.1663-1.745.1662-3.658-.0058-6.906-2.2-8.077-5.4562 1.384 2.8563 4.413 4.6925 7.754 4.6997z" fill="#fff"/><path d="m120.757 5.90584c0-.06877-.043-.13755-.068-.20632.013.08023.043.14328.068.20632z" fill="#fff"/><path d="m119.323 7.28703c-1.081 1.14683-2 2.42019-2.733 3.78837-.017.0275-.031.0563-.043.086-.085.1433-.158.2923-.232.4413-.491.174-1.012.2615-1.537.2579-2.48.0037-4.509-1.8539-4.569-4.18303s1.871-4.27701 4.348-4.38627 4.594 1.6601 4.766 3.98427z" fill="#fff"/><path d="m116.59 11.0755c-.017.0275-.031.0562-.043.086-1.87.8091-4.089.2261-5.242-1.37707-1.152-1.60322-.898-3.75464.599-5.08216-1.177 1.13879-1.514 2.82905-.855 4.29079s2.186 2.41074 3.875 2.40914c.573.0014 1.141-.1099 1.666-.3267z" fill="url(#c)"/><path clip-rule="evenodd" d="m113.845 8.92612c-.157-.5731.087-1.17673.61-1.50734v-.02865c-.516-.04543-.952-.37786-1.105-.84251-.083-.37149.001-.75886.232-1.07036s.589-.51942.989-.57452c.345-.13726.737-.13087 1.077.01759.341.14847.598.42518.71.76187.137.49086-.062 1.01032-.5 1.30673.627.0049 1.179.39273 1.36.95713.1.40508.017.83109-.231 1.17579s-.637.57696-1.074.64104c-1.074.27511-1.873-.14901-2.068-.83677zm2.678-.71642c-.165-.57313-.671-.73933-1.397-.73933-.479.21377-.734.7133-.61 1.19784.065.24791.239.45838.478.57953s.522.14172.778.05664c.26-.04168.489-.18397.632-.39214.143-.20818.186-.46309.119-.70254zm-1.324-1.26662c-.61.00574-1.092-.14901-1.22-.61898-.072-.21426-.042-.44743.083-.63888.126-.19144.333-.32224.57-.35837.222-.08056.471-.06282.678.04831s.35.30386.389.52483c.104.41398-.101.84175-.5 1.04309z" fill="#414042" fill-rule="evenodd"/><path d="m121.293 31.1752c-5.102-4.7928-6.628-12.001-3.867-18.2633 2.761-6.26231 9.265-10.34549 16.48-10.34549s13.719 4.08318 16.48 10.34549c2.761 6.2623 1.235 13.4705-3.867 18.2633-6.968 6.5407-18.259 6.5407-25.226 0z" fill="url(#d)"/><path d="m128.339 33.2613c-7.431-3.593-10.62-11.9872-7.289-19.1887 3.331-7.20158 12.038-10.73911 19.905-8.08665-5.259-2.54249-11.586-2.12503-16.415 1.08299-4.829 3.20796-7.358 8.67366-6.559 14.17916s4.792 10.1362 10.358 12.0132z" fill="#fff"/><path d="m127.503 29.1749c-2.427-2.2799-3.153-5.709-1.84-8.6882 1.314-2.9792 4.408-4.9218 7.84-4.9218 3.433 0 6.527 1.9426 7.84 4.9218 1.314 2.9792.587 6.4083-1.84 8.6882-3.314 3.1127-8.686 3.1127-12 0z" fill="#fff"/><path d="m127.943 18.6809c2.221-2.0896 5.558-2.7268 8.471-1.6178s4.837 3.7488 4.883 6.7015c.022-2.623-1.447-5.0576-3.854-6.3869-2.407-1.3292-5.386-1.351-7.815-.0573-2.429 1.2938-3.939 3.7066-3.961 6.3296.056-1.8686.87-3.6465 2.276-4.9691z" fill="url(#e)"/><path clip-rule="evenodd" d="m132.829 20.6009c1.044.5731 1.428 1.5474 1.3 2.7453h.055c.739-.5791 1.778-.681 2.629-.2579 1.312.7049 1.58 2.2581.744 3.6393-.927 1.5188-2.403 1.7194-3.447 1.1807-.867-.4796-1.333-1.4106-1.171-2.3441h-.036c-.835.7649-2.1.9362-3.13.4241-1.464-.7852-1.72-2.4759-.799-4.0119.97-1.599 2.635-2.0289 3.855-1.3755zm-2.519 4.2583c1.006.5388 1.909.1433 2.867-.7565.343-.8738-.02-1.8536-.866-2.3384-.432-.2484-.957-.3116-1.442-.1736-.484.1379-.883.4639-1.096.8958-.287.3749-.392.8462-.29 1.2979s.402.842.827 1.0748zm3.526-.0114c.787-.7738 1.604-1.1348 2.44-.6706.38.1935.654.5292.755.9236s.02.8107-.224 1.1454c-.178.3737-.52.6556-.938.7714-.418.1157-.869.0538-1.234-.1696-.713-.4237-1.039-1.2406-.799-2.0002z" fill="#414042" fill-rule="evenodd"/><path clip-rule="evenodd" d="m99.8499 11.9522c.9181-.41 1.7611-.9557 2.4951-1.6163h.031c.185-.2168.148-.53369-.083-.70778s-.568-.13945-.753.07737c-.6.63691-1.302 1.18221-2.0805 1.61621-.7922.453-1.6545.7875-2.5561.9915-.9131.2121-1.857.2818-2.7941.2064-.9522-.0655-1.8914-.2466-2.7941-.5388.8821.3708 1.8107.6346 2.7636.7852.9659.1577 1.9524.1693 2.9222.0344.9919-.1373 1.9539-.4238 2.8489-.8482zm2.3431 1.8225c-.953.4161-1.963.7018-3.0019.8483-1.0079.1561-2.0327.1927-3.0503.1089-1.0093-.078-2.0048-.2704-2.9649-.5732-.9488-.297-1.8642-.6809-2.733-1.1462.9015.3876 1.8415.6909 2.8062.9055.9553.2132 1.9342.319 2.9161.3152.9693-.002 1.9345-.1175 2.8734-.3439.9199-.2068 1.8034-.5369 2.6234-.98h.036c.163-.1136.381-.1299.561-.0421s.291.2645.286.455c-.005.1906-.125.3618-.31.4411zm1.744 1.9659c-.999.5106-2.088.8465-3.215.9915-1.0927.1403-2.201.1403-3.294 0-1.0753-.15-2.1293-.4133-3.1418-.7852-.3414-.1146-.6665-.2622-.9899-.409-.162-.0735-.3235-.1469-.4864-.2157-.3232-.1367-.6276-.311-.9311-.4847-.1548-.0887-.3093-.1771-.4659-.2604.1822.0792.3628.16.543.2406.3022.1352.6031.2699.9089.3956.488.2006.9883.3725 1.5068.4986 1.0111.2832 2.0526.46 3.1052.5273 1.0389.0424 2.0792-.0462 3.0932-.2637.985-.1927 1.925-.5499 2.776-1.0545h.036c.156-.1024.358-.1189.53-.0433.173.0756.289.2318.305.4098.017.178-.069.3507-.225.4531z" fill="#fff" fill-rule="evenodd"/><g fill="#d01c2d"><path clip-rule="evenodd" d="m38.4293 33.9433c3.2415-2.8577 8.2885-2.8577 11.53 0 1.5745 1.4526 2.4286 3.4588 2.3549 5.5307.0847 2.0693-.7611 4.0766-2.3305 5.5307-1.5384 1.4165-3.624 2.1841-5.7772 2.1264-2.1787.0666-4.289-.72-5.8264-2.172-1.5374-1.4519-2.3636-3.4386-2.2812-5.4851-.087-2.0696.7591-4.0777 2.3304-5.5307zm5.7772 9.8636c1.1746.0493 2.3134-.3862 3.1174-1.1921.8375-.8584 1.2765-1.9948 1.2201-3.158.0616-1.1708-.3777-2.3161-1.2201-3.1808-.8034-.8074-1.942-1.2449-3.1174-1.1979-1.1819-.0438-2.3266.3926-3.1418 1.1979-.8337.8696-1.2717 2.0115-1.2201 3.1808-.0458 1.1617.3919 2.2944 1.2201 3.158.8158.8038 1.9607 1.2382 3.1418 1.1921z" fill-rule="evenodd"/><path d="m93.505 46.5981h7.321c.889 0 1.61-.6774 1.61-1.5131 0-.8356-.721-1.5131-1.61-1.5131h-5.4908v-2.7166h4.7948c.603.0347 1.176-.2474 1.488-.7326.313-.4851.313-1.093 0-1.5782-.312-.4851-.885-.7673-1.488-.7325h-4.7948v-2.6192h5.2948c.89 0 1.611-.6775 1.611-1.5131 0-.8357-.721-1.5131-1.611-1.5131h-7.125c-1.2201 0-1.6837.2465-1.6837 1.3813v11.6689c0 1.1348.4758 1.3813 1.6837 1.3813z"/><path d="m19.6699 31.2668h-3.6603v-9.0669c0-1.3526-.7077-1.92-1.6899-1.92s-1.6898.5731-1.6898 1.92v10.0642c0 1.3526.61 1.92 2.0254 1.92h5.0024c.4458.0653.8984-.0686 1.2239-.362.3255-.2935.4865-.7128.4355-1.1339 0-.9113-.5735-1.4214-1.6472-1.4214z"/><path clip-rule="evenodd" d="m69.8958 34.2701h-2.3305c-1.0675 0-1.6776-.2407-1.6776-1.3813v-11.6632c0-1.1463.6101-1.3812 1.6776-1.3812h2.6782c2.611 0 4.5754.6705 5.9419 2.0288 1.412 1.4886 2.1745 3.4226 2.1352 5.4161.0915 1.8521-.6168 3.6604-1.9643 5.0149-1.3178 1.3182-3.4774 1.9659-6.4605 1.9659zm-1.0554-11.5085c-.1281 0-.1892.0745-.1892.2121v8.1728c0 .1318.0611.2235.1892.2235h1.4153c2.001 0 3.3675-.4126 4.124-1.2437.7555-.8021 1.1646-1.8405 1.1469-2.9115.0358-1.1528-.3787-2.2781-1.1652-3.1637-.7687-.8597-2.1373-1.2895-4.1057-1.2895z" fill-rule="evenodd"/></g></svg>
