<svg fill="none" height="38" viewBox="0 0 102 38" width="102" xmlns="http://www.w3.org/2000/svg" xmlns:xlink="http://www.w3.org/1999/xlink"><linearGradient id="a"><stop offset="0" stop-color="#fff33b"/><stop offset=".04" stop-color="#fee72e"/><stop offset=".12" stop-color="#fed51b"/><stop offset=".2" stop-color="#fdca10"/><stop offset=".28" stop-color="#fdc70c"/><stop offset=".67" stop-color="#f3903f"/><stop offset=".89" stop-color="#ed683c"/><stop offset="1" stop-color="#e93e3a"/></linearGradient><linearGradient id="b" gradientUnits="userSpaceOnUse" x1="69.3377" x2="81.5986" xlink:href="#a" y1="12.2352" y2="12.2352"/><linearGradient id="c" gradientUnits="userSpaceOnUse" x1="74.2011" x2="78.2376" xlink:href="#a" y1="7.82347" y2="7.82347"/><linearGradient id="d" gradientUnits="userSpaceOnUse" x1="77.8855" x2="101.83" xlink:href="#a" y1="24.4844" y2="24.4844"/><linearGradient id="e" gradientUnits="userSpaceOnUse" x1="84.3255" x2="94.822" xlink:href="#a" y1="16.0676" y2="16.0676"/><g clip-rule="evenodd" fill="#fff" fill-rule="evenodd"><path d="m70.04 17.0409c3.2632 1.5843 5.5237 4.5645 6.073 8.0066l.0082.0195c.9352 5.9063-3.3299 11.42-9.5426 12.3362-1.1414.1608-2.3015.1608-3.4429 0-1.8195-.2644-3.5444-.9436-5.0272-1.9796-.9294-.6573-1.7492-1.4439-2.4317-2.3334-1.0335-1.3239-1.7338-2.8552-2.0469-4.4764 1.4134-.7828 2.649-1.8245 3.6353-3.0646-.0653.378-.0995.7603-.1024 1.1434-.0025 3.4977 2.6081 6.505 6.223 7.1685 3.6149.6636 7.2169-1.2034 8.5861-4.4502s.1203-6.9599-2.9769-8.8509c-3.0973-1.8911-7.1714-1.4279-9.7116 1.104.2098-.7105.3469-1.4385.4094-2.174l.61.5795c.0368.0247.086.0247.1228 0 .8036-.4857 1.6902-.8345 2.62-1.0307.0445-.0117.0759-.0494.0778-.0933v-2.2012c.0003-.0188-.0082-.0367-.0233-.0487-.0151-.0121-.0351-.0171-.0545-.0136-1.1647.1891-2.2881.5611-3.3242 1.1007-.0122-.2451-.0368-.4862-.0695-.7273 3.2582-1.5935 7.1249-1.5989 10.3881-.0145zm-13.8024 15.5126 1.6375-1.5557c.0253-.0312.0301-.0732.0123-.1089-.5114-.7619-.8785-1.6029-1.0848-2.4851-.0121-.0431-.0515-.0743-.0983-.0778h-2.313c-.0208-.0003-.0406.0083-.0541.0233-.0135.0151-.0191.0351-.0155.0545.2674 1.4955.8874 2.9141 1.8136 4.1497.0114.0163.0306.0261.0512.0261.0205 0 .0398-.0098.0511-.0261zm14.7786 2.4073c-1.3016.8783-2.7944 1.4671-4.3681 1.7229-.0201.0037-.0409-.0017-.0561-.0147-.0153-.013-.0233-.032-.0216-.0514v-2.1973c.0005-.0444.0325-.0828.0777-.0934.9286-.196 1.814-.5448 2.616-1.0306.0377-.0266.0892-.0266.1269 0l1.6375 1.5556c.0199.013.0306.0352.0281.058-.0026.0227-.0181.0423-.0404.0509zm.7942-12.5929c-.0287.0341-.0287.0826 0 .1167.5104.761.8775 1.6006 1.0849 2.4812.0124.0423.0521.0722.0982.0739h2.3007c.0205.0016.0405-.006.0542-.0205.0136-.0145.0193-.0343.0154-.0534-.2673-1.4966-.8873-2.9165-1.8135-4.1535-.0114-.0163-.0306-.0261-.0512-.0261s-.0398.0098-.0512.0261z"/><path d="m59.1139 31.2729c2.6873 3.4395 7.5146 4.1582 10.7821 1.6054 3.2676-2.5529 3.738-7.4108 1.0508-10.8503-2.6873-3.4395-7.5146-4.1583-10.7822-1.6054-.3218.2514-.6164.5252-.8836.8177-.3767 1.4728-.9993 2.8774-1.8613 4.1467-.2274 2.0012.3213 4.1286 1.6942 5.8859z"/><path d="m56.5489 12.0696c1.0928 1.4074 1.808 3.0467 2.0837 4.7758v.0156c.4573 2.8373-.2924 5.731-2.0837 8.0426-.6939.8735-1.5219 1.643-2.4563 2.2829-3.5425 2.4769-8.2705 2.7919-12.1422.809l.0094-.0934c.0219-.2178.0439-.4356.0439-.6533 1.0948.6024 2.2939 1.0147 3.5411 1.2172.0196.0053.0407.001.0562-.0115.0156-.0124.0237-.0314.0216-.0507v-2.1818c-.0009-.0433-.0332-.0804-.0778-.0894-.9282-.1991-1.8132-.5491-2.616-1.0345-.0376-.0266-.0892-.0266-.1269 0l-.8187.7778c-.0759-.9485-.2725-1.8849-.5854-2.7885 2.4607 2.8687 6.7958 3.526 10.0742 1.5274 3.2784-1.9985 4.4558-6.0162 2.736-9.3366-1.7197-3.3203-5.7888-4.8857-9.4559-3.6376-3.667 1.248-5.7641 4.912-4.8731 8.5144-.9915-1.3786-2.2776-2.5434-3.7745-3.4185.282-1.6881.9837-3.288 2.0469-4.6669.6908-.8839 1.519-1.6628 2.4563-2.31015 4.0161-2.81371 9.4933-2.81371 13.5095 0 .9278.64995 1.7475 1.42875 2.4317 2.31015zm-17.2267 4.698c.2063-.8821.5735-1.7232 1.0849-2.4851.0187-.0355.0139-.078-.0123-.1089l-1.6375-1.5557c-.0114-.0163-.0306-.026-.0512-.026s-.0398.0097-.0512.026c-.9244 1.2366-1.5442 2.6548-1.8135 4.1497-.0037.0195.002.0395.0154.0545.0135.0151.0334.0236.0542.0233h2.313c.0473-.0023.0873-.034.0982-.0778zm14.226-6.4715-1.6376 1.5557c-.0359.0273-.0869.0273-.1228 0-.8036-.4857-1.6902-.8345-2.62-1.0306-.0453-.0107-.0773-.049-.0778-.0934v-2.18564c-.0003-.01874.0082-.03663.0233-.0487.0151-.01208.0351-.01704.0545-.01353 1.5751.25267 3.0698.84031 4.3722 1.71897.0154.0114.025.0284.0266.0469.0015.0185-.0051.0368-.0184.0503zm2.4869 14.0697c.0206 0 .0398-.0098.0512-.0261.9309-1.2372 1.5551-2.6585 1.8258-4.1574.0037-.0195-.002-.0395-.0154-.0545-.0135-.0151-.0334-.0236-.0542-.0233h-2.313c-.0457.0029-.0847.0323-.0982.0739-.2065.8833-.5736 1.7256-1.0849 2.489-.026.035-.026.0817 0 .1167l1.6376 1.5556c.0113.0163.0305.0261.0511.0261z"/><path d="m47.2592 25.9793c4.3648 0 7.9032-3.3615 7.9032-7.5081s-3.5384-7.5081-7.9032-7.5081-7.9032 3.3615-7.9032 7.5081c0 .4083.0343.8091.1003 1.1997.9287 1.2036 1.6522 2.559 2.1217 4.0197 1.4369 1.4113 3.4512 2.2887 5.6812 2.2887z"/><path d="m40.9393 25.1448c-.2764-1.729-.9916-3.3681-2.0838-4.7758-.6842-.8815-1.5039-1.6602-2.4317-2.3102-3.7261-2.6086-8.7447-2.8116-12.6907-.5133.0191.2592.0313.5185.0368.7778 1.2354-.7843 2.6299-1.3142 4.0938-1.5557.0205-.0035.0415.0019.0574.0147.0158.0128.0248.0317.0245.0515v2.1973c-.0037.0445-.0365.0819-.0819.0933-.9286.196-1.8139.5448-2.6159 1.0306-.0368.0247-.086.0247-.1228 0l-1.3797-1.295c-.122 3.7505-2.1243 7.2195-5.3874 9.3338 0 .0778 0 .1517.0287.2295.2759 1.7255.9912 3.3609 2.0837 4.7641 1.7902 2.3098 4.4735 3.8488 7.4589 4.2781 1.14.1607 2.2988.1607 3.4388 0 2.9896-.427 5.678-1.9653 7.4731-4.2762 1.7952-2.3108 2.55-5.2048 2.0982-8.0445zm-18.2502 5.9503-1.6375 1.5556c-.0123.0163-.0321.026-.0532.026s-.0409-.0097-.0532-.026c-.9249-1.2358-1.5435-2.6545-1.8095-4.1496-.0055-.0187-.001-.0387.0121-.0535.0132-.0148.0332-.0224.0534-.0204h2.313c.0467.0005.0871.0308.0983.0739.2099.881.5768 1.7215 1.0848 2.4851.0199.0347.0167.0772-.0082.1089zm8.7771 5.6859c1.5735-.2565 3.0662-.8453 4.3681-1.7229.0218-.0095.0364-.0295.0381-.0521.0017-.0227-.0098-.0445-.0299-.0568l-1.6375-1.5556c-.0359-.0273-.0869-.0273-.1228 0-.8036.4857-1.6903.8344-2.6201 1.0306-.0445.0118-.0759.0495-.0777.0933v2.1974c-.0004.0197.0086.0386.0245.0514.0158.0128.0369.0182.0573.0147zm8.6543-11.6362h-2.313c-.0456-.0009-.0846-.0315-.0941-.0739-.2082-.8871-.5766-1.7332-1.089-2.5007-.026-.035-.026-.0817 0-.1167l1.6375-1.5556c.0139-.0138.0332-.0216.0533-.0216s.0393.0078.0532.0216c.9249 1.2373 1.5435 2.6572 1.8094 4.1535.0118.0194.0117.0432-.0001.0625-.0119.0193-.0337.0311-.0572.0309z"/><path d="m14.1153 7.97175c4.4737 1.04527 7.8444 4.54725 8.541 8.87365.1747 1.0826.1747 2.1842 0 3.2668-.7123 4.4457-4.2439 8.0098-8.8719 8.9536-4.62807.9439-9.38835-.9291-11.95857-4.7053-2.570215-3.7762-2.414894-8.6688.3902-12.2909 2.72945-3.52591 7.42552-5.14312 11.89927-4.09785zm3.4484 2.22715c-1.3013-.87802-2.7945-1.46562-4.3681-1.71898-.021-.00813-.0449-.00538-.0633.0073-.0183.01267-.0285.03345-.0268.05493v2.18565c.0019.0439.0333.0816.0778.0934.9301.1952 1.8169.544 2.62 1.0306.0359.0273.0869.0273.1228 0l1.6376-1.5557c.0155-.0118.0246-.0297.0246-.0486s-.0091-.0368-.0246-.0486zm-14.77864 2.4113 1.63752 1.5556c.02671.0362.02671.0844 0 .1206-.511.7625-.87941 1.6033-1.08895 2.4851-.01087.0438-.05093.0755-.09825.0778h-2.300712c-.020622.0006-.040348-.008-.053236-.0233-.012889-.0153-.017433-.0355-.012265-.0545.265423-1.4965.884033-2.9165 1.809453-4.1536.01093-.0172.02997-.0284.05111-.0299.02114-.0016.04176.0067.05533.0222zm2.4399 14.1485c1.30196.8769 2.79482 1.4644 4.36808 1.719.02328.0101.05059.0063.06995-.0095.01935-.0159.02721-.041.02012-.0644v-2.1779c-.00279-.044-.0364-.0807-.08188-.0894-.92821-.1991-1.81322-.5491-2.61593-1.0345-.0359-.0273-.08692-.0273-.12282 0l-1.63752 1.5556c-.01569.0126-.02474.0311-.02474.0506s.00905.038.02474.0505zm14.76634-2.4112-1.6375-1.5557c-.026-.0349-.026-.0817 0-.1166.511-.764.8794-1.606 1.0889-2.4891.0124-.0422.0521-.0721.0983-.0739h2.313c.0206-.0006.0403.0081.0532.0234s.0174.0354.0123.0544c-.2667 1.495-.8853 2.9135-1.8095 4.1497-.012.0159-.0308.026-.0513.0275-.0206.0015-.0407-.0057-.0551-.0197z"/></g><path d="m81.5986 3.54078c-.1911.15297-.3794.30854-.565.46669-.3349.29104-.652.60008-.9497.92561-1.5521 1.67667-2.5987 3.72039-3.0294 5.91532-.0369.1945-.0696.3889-.0983.5873-.0287.1983-.0573.4667-.0778.7-3.2875.5505-6.4723-1.3785-7.3343-4.44222-.8619-3.06374.8851-6.24498 4.0234-7.326089 3.1382-1.081106 6.6256.296891 8.0311 3.173389z" fill="url(#b)"/><path d="m75.5562 11.0467c.5019-.0001 1.0015-.0629 1.4861-.1866-.0369.1944-.0696.3889-.0983.5872-.3852.0751-.7775.1128-1.1708.1128-2.4549-.004-4.6346-1.4929-5.4202-3.70243.9287 1.93822 2.9616 3.18423 5.2032 3.18903z" fill="#fff"/><path d="m81.0338 4.0075c0-.04667-.0286-.09334-.045-.14001.0082.05445.0287.09723.045.14001z" fill="#fff"/><path d="m80.072 4.94475c-.7254.7782-1.3419 1.64227-1.834 2.5707-.0112.01866-.0208.03817-.0287.05833-.0573.09723-.1064.19835-.1555.29947-.3297.11808-.6794.17741-1.0317.17501-1.6641.00251-3.0257-1.25803-3.0661-2.83851-.0404-1.58047 1.2553-2.90225 2.9176-2.97639 1.6624-.07414 3.0827 1.1265 3.1984 2.70361z" fill="#fff"/><path d="m78.2376 7.51542c-.0112.01866-.0208.03817-.0287.05834-1.2551.54904-2.7441.15348-3.5173-.93442-.7733-1.0879-.6031-2.54779.402-3.44861-.7899.77275-1.016 1.91972-.5739 2.91161s1.4665 1.63587 2.6003 1.63476c.3847.00093.7654-.07457 1.1176-.22168z" fill="url(#c)"/><path clip-rule="evenodd" d="m76.3957 6.05703c-.105-.38889.0589-.79849.4094-1.02284v-.01944c-.3459-.03083-.6383-.25641-.741-.5717-.0559-.25209.0002-.51495.1553-.72632.155-.21137.3952-.35246.6635-.38986.232-.09314.4946-.0888.7231.01194.2285.10075.4015.28852.4764.51698.0919.33309-.0415.68558-.3357.88672.4211.00332.791.26649.9129.64948.0673.27487.0111.56395-.1551.79785s-.4275.39151-.721.435c-.7205.18667-1.2568-.10112-1.3878-.56781zm1.7972-.48614c-.1105-.38891-.4503-.5017-.9375-.5017-.3214.14506-.4921.48403-.4094.81283.0439.16822.1605.31104.3211.39325s.3503.09617.5223.03844c.1743-.02829.3281-.12484.4239-.2661.0957-.14126.1246-.31424.0796-.47672zm-.8883-.85949c-.4094.00389-.7328-.10112-.8188-.42003-.0485-.14539-.028-.30361.0561-.43352s.2235-.21867.3819-.24318c.1493-.05467.3166-.04263.4555.03278s.2347.20619.2609.35613c.0696.28091-.0681.57119-.3356.70782z" fill="#414042" fill-rule="evenodd"/><path d="m81.3939 21.1545c-3.4237-3.2522-4.448-8.1434-2.5953-12.39288 1.8528-4.24943 6.2176-7.02016 11.0592-7.02016s9.2065 2.77073 11.0592 7.02016c1.853 4.24948.828 9.14068-2.5953 12.39288-4.6755 4.4384-12.2523 4.4384-16.9278 0z" fill="url(#d)"/><path d="m86.1223 22.5701c-4.987-2.438-7.1269-8.1341-4.8916-13.02087 2.2353-4.88675 8.0786-7.28722 13.3576-5.48734-3.529-1.72526-7.7753-1.44198-11.0158.73488-3.2405 2.17687-4.937 5.88573-4.401 9.62153.5359 3.7359 3.2153 6.8782 6.9508 8.1518z" fill="#fff"/><path d="m85.5615 19.7972c-1.6289-1.5471-2.1162-3.874-1.2349-5.8956s2.9578-3.3397 5.2611-3.3397 4.3798 1.3181 5.2611 3.3397.394 4.3485-1.2349 5.8956c-2.2237 2.1122-5.8287 2.1122-8.0524 0z" fill="#fff"/><path d="m85.8566 12.6763c1.4905-1.4179 3.7297-1.8504 5.6846-1.0978 1.9549.7525 3.2456 2.5438 3.2767 4.5474.0146-1.7799-.9714-3.432-2.5866-4.3339-1.6153-.902-3.6143-.9168-5.2442-.0389-1.6298.8779-2.6429 2.5151-2.6575 4.295.037-1.2679.5834-2.4744 1.527-3.3718z" fill="url(#e)"/><path clip-rule="evenodd" d="m89.1353 13.9791c.7001.389.958 1.0501.872 1.8629h.0368c.4964-.3929 1.1934-.4621 1.7645-.175.8801.4784 1.0603 1.5323.4994 2.4696-.6222 1.0306-1.6129 1.1667-2.313.8012-.5823-.3255-.8945-.9572-.786-1.5907h-.0246c-.5599.519-1.4085.6353-2.1001.2878-.9825-.5328-1.1544-1.6801-.5363-2.7224.651-1.085 1.7686-1.3767 2.5873-.9334zm-1.6907 2.8897c.6755.3655 1.2813.0972 1.9241-.5134.2302-.5929-.0133-1.2578-.5814-1.5868-.2899-.1685-.6418-.2114-.9672-.1178-.3253.0936-.593.3148-.7358.6079-.1926.2544-.2633.5742-.1947.8807s.2701.5714.555.7294zm2.3662-.0078c.5281-.5251 1.0767-.7701 1.6375-.4551.2547.1314.4389.3591.5068.6268.0679.2676.0131.5501-.1506.7772-.1192.2536-.3492.4449-.6296.5234-.2804.0786-.5829.0365-.8278-.115-.4783-.2875-.6973-.8419-.5363-1.3573z" fill="#414042" fill-rule="evenodd"/><path clip-rule="evenodd" d="m67.0045 8.11048c.6163-.2782 1.1816-.64848 1.6744-1.09673h.0205c.1243-.14713.0996-.36217-.0553-.4803-.1549-.11814-.3812-.09463-.5056.0525-.4026.43222-.8735.80223-1.396 1.09673-.5316.3074-1.1102.53439-1.7153.67281-.6127.14388-1.2461.19118-1.8749.14001-.639-.04442-1.2692-.1673-1.875-.36557.5919.25157 1.2151.43061 1.8545.5328.6482.10699 1.3101.11487 1.9609.02334.6657-.0932 1.3112-.28755 1.9118-.57559zm1.572 1.23674c-.6389.28237-1.3172.4762-2.0141.57558-.6764.1059-1.364.1308-2.0469.0739-.6773-.0529-1.3453-.18349-1.9896-.38891-.6367-.20153-1.251-.46205-1.834-.77782.605.26301 1.2357.46883 1.8831.61447.6411.14464 1.298.21644 1.9569.2139.6504-.00137 1.2981-.07975 1.9282-.23334.6173-.14036 1.2101-.36433 1.7603-.66504h.0245c.1094-.07707.2555-.08815.3763-.02856.1209.0596.1954.17945.192.30878-.0034.12932-.0842.24548-.208.29926zm1.1709 1.33398c-.6704.3464-1.4014.5744-2.1575.6728-.7334.0952-1.4771.0952-2.2106 0-.7216-.1017-1.4289-.2805-2.1083-.5328-.2291-.0777-.4473-.1779-.6643-.2775-.1087-.0499-.2171-.0997-.3264-.1464-.2169-.0927-.4212-.211-.6248-.3289-.1039-.0602-.2076-.12022-.3127-.17671.1223.05375.2435.10861.3644.16331.2028.0917.4048.1831.6099.2684.3275.1361.6632.2528 1.0112.3383.6785.1922 1.3774.3122 2.0837.3578.6972.0288 1.3953-.0313 2.0756-.1789.6609-.1308 1.2918-.3731 1.8627-.7156h.0245c.1046-.0694.2403-.0806.3559-.0293s.1936.1573.2047.278c.011.1208-.0466.238-.1512.3075z" fill="#fff" fill-rule="evenodd"/><g fill="#d01c2d"><path clip-rule="evenodd" d="m25.7881 23.033c2.1753-1.9392 5.5621-1.9392 7.7373 0 1.0565.9857 1.6297 2.347 1.5802 3.753.0569 1.4041-.5107 2.7662-1.5638 3.7529-1.0324.9612-2.4319 1.4821-3.8768 1.4429-1.4621.0452-2.8782-.4886-3.9099-1.4738-1.0316-.9852-1.5861-2.3334-1.5308-3.722-.0584-1.4044.5094-2.7671 1.5638-3.753zm3.8769 6.6931c.7882.0335 1.5524-.262 2.0919-.8089.562-.5825.8566-1.3536.8188-2.1429.0413-.7945-.2535-1.5717-.8188-2.1585-.5391-.5478-1.3032-.8447-2.0919-.8128-.7932-.0297-1.5614.2664-2.1083.8128-.5595.5902-.8534 1.365-.8188 2.1585-.0307.7882.2629 1.5569.8188 2.1429.5474.5454 1.3157.8402 2.1083.8089z" fill-rule="evenodd"/><path d="m62.7471 31.6201h4.9125c.5969 0 1.0808-.4597 1.0808-1.0267 0-.5671-.4839-1.0268-1.0808-1.0268h-3.6844v-1.8434h3.2177c.4043.0236.7889-.1679.9985-.4971s.2096-.7417 0-1.0709-.5942-.5207-.9985-.4971h-3.2177v-1.7773h3.5534c.5969 0 1.0808-.4597 1.0808-1.0267 0-.5671-.4839-1.0268-1.0808-1.0268h-4.7815c-.8188 0-1.1299.1673-1.1299.9373v7.9182c0 .7701.3193.9373 1.1299.9373z"/><path d="m13.1998 21.2168h-2.4563v-6.1526c0-.9178-.4748-1.3028-1.13393-1.3028-.6591 0-1.13398.3889-1.13398 1.3028v6.8293c0 .9178.40938 1.3028 1.35914 1.3028h3.35687c.2991.0443.6029-.0465.8213-.2456s.3265-.4837.2922-.7694c0-.6184-.3848-.9645-1.1053-.9645z"/><path clip-rule="evenodd" d="m46.904 23.2546h-1.5639c-.7164 0-1.1257-.1633-1.1257-.9372v-7.9144c0-.7778.4093-.9372 1.1257-.9372h1.7972c1.7522 0 3.0704.455 3.9874 1.3767.9475 1.0101 1.4591 2.3225 1.4328 3.6752.0614 1.2568-.4139 2.4838-1.3182 3.403-.8843.8945-2.3335 1.3339-4.3353 1.3339zm-.7082-7.8093c-.086 0-.127.0506-.127.1439v5.5459c0 .0894.041.1516.127.1516h.9497c1.3428 0 2.2598-.28 2.7674-.8439.507-.5443.7815-1.2489.7697-1.9757.024-.7822-.2541-1.5459-.782-2.1467-.5158-.5834-1.4342-.8751-2.7551-.8751z" fill-rule="evenodd"/></g></svg>
